<?xml version="1.0"?>
<svg xmlns="http://www.w3.org/2000/svg" xmlns:xlink="http://www.w3.org/1999/xlink" xmlns:svgjs="http://svgjs.com/svgjs" version="1.1" width="512" height="512" x="0" y="0" viewBox="0 0 512 512" style="enable-background:new 0 0 512 512" xml:space="preserve" class=""><g><g xmlns="http://www.w3.org/2000/svg"><path d="m315.5 69.721c4.143 0 7.5-3.358 7.5-7.5v-22.649c0-4.142-3.357-7.5-7.5-7.5s-7.5 3.358-7.5 7.5v22.649c0 4.142 3.357 7.5 7.5 7.5zm-36.904 1.392c2.055 3.646 6.664 4.851 10.217 2.847 3.608-2.035 4.883-6.609 2.848-10.217l-9.511-16.86c-2.034-3.607-6.61-4.881-10.217-2.847-3.608 2.035-4.883 6.609-2.848 10.217zm63.592 2.847c3.545 1.999 8.161.799 10.217-2.847l9.511-16.86c2.035-3.608.761-8.182-2.848-10.217-3.605-2.035-8.182-.76-10.217 2.847l-9.511 16.86c-2.035 3.608-.761 8.182 2.848 10.217zm144.173 206.015-60.8-20.26c-3.446-1.149-6.219-3.742-7.605-7.116l-33.879-82.428c-5.798-14.118-19.413-23.241-34.688-23.241h-.389v-13.502c0-18.472-15.028-33.5-33.5-33.5s-33.5 15.028-33.5 33.5v13.502h-50.961c-.013 0-.026-.002-.039-.002s-.026.002-.039.002h-193.461c-20.678 0-37.5 16.822-37.5 37.5v49.498c0 4.142 3.357 7.5 7.5 7.5s7.5-3.358 7.5-7.5v-49.498c0-12.407 10.094-22.5 22.5-22.5h186v161.998h-208.5v-55c0-4.142-3.357-7.5-7.5-7.5s-7.5 3.358-7.5 7.5v118.002c0 20.678 16.822 37.5 37.5 37.5h19.212c3.723 31.212 30.339 55.498 62.538 55.498s58.815-24.286 62.538-55.498h136.674c3.723 31.212 30.339 55.498 62.538 55.498s58.815-24.286 62.538-55.498h30.962c20.678 0 37.5-16.822 37.5-37.5v-71.38c0-16.171-10.304-30.468-25.639-35.575zm-367.111 184.953c-26.468 0-48-21.533-48-48s21.532-48 48-48 48 21.533 48 48-21.532 48-48 48zm104.25-55.498h-41.712c-3.721-31.214-30.339-55.502-62.538-55.502s-58.817 24.288-62.538 55.502h-19.212c-12.406 0-22.5-10.093-22.5-22.5v-48.002h208.5zm73.5-276.002c0-10.201 8.299-18.5 18.5-18.5s18.5 8.299 18.5 18.5v13.502h-37zm84 331.5c-26.468 0-48-21.533-48-48s21.532-48 48-48 48 21.533 48 48-21.532 48-48 48zm116-141h-114.397c-4.143 0-7.5 3.358-7.5 7.5s3.357 7.5 7.5 7.5h114.397v48.002c0 12.407-10.094 22.5-22.5 22.5h-30.962c-3.721-31.214-30.339-55.502-62.538-55.502s-58.817 24.288-62.538 55.502h-79.962v-70.502h109.103c4.143 0 7.5-3.358 7.5-7.5s-3.357-7.5-7.5-7.5h-109.103v-161.998h110.89c9.165 0 17.335 5.471 20.813 13.941l33.879 82.43c3.047 7.413 9.147 13.114 16.737 15.644l60.801 20.26c9.199 3.064 15.38 11.642 15.38 21.344zm-140.781-139.167c-1.915-4.758-6.467-7.833-11.596-7.833h-78.623c-6.893 0-12.5 5.607-12.5 12.5v69.5c0 6.893 5.607 12.5 12.5 12.5h106.598c8.63.064 14.889-9.16 11.596-17.168zm-87.719 71.667v-64.5h74.434l25.963 64.5zm112.5 138c-12.406 0-22.5 10.093-22.5 22.5s10.094 22.5 22.5 22.5 22.5-10.093 22.5-22.5-10.094-22.5-22.5-22.5zm0 30c-4.136 0-7.5-3.364-7.5-7.5s3.364-7.5 7.5-7.5 7.5 3.364 7.5 7.5-3.364 7.5-7.5 7.5zm-252.75-247.5h-18c-7.444 0-13.5 6.056-13.5 13.5v30h-30c-7.444 0-13.5 6.056-13.5 13.5v18c0 7.444 6.056 13.5 13.5 13.5h30v30c0 7.444 6.056 13.5 13.5 13.5h18c7.444 0 13.5-6.056 13.5-13.5v-30h30c7.444 0 13.5-6.056 13.5-13.5v-18c0-7.444-6.056-13.5-13.5-13.5h-30v-30c0-7.444-6.056-13.5-13.5-13.5zm42 58.5v15h-33c-5.79 0-10.5 4.71-10.5 10.5v33h-15v-33c0-5.79-4.71-10.5-10.5-10.5h-33v-15h33c5.79 0 10.5-4.71 10.5-10.5v-33h15v33c0 5.79 4.71 10.5 10.5 10.5zm-51 159c-12.406 0-22.5 10.093-22.5 22.5s10.094 22.5 22.5 22.5 22.5-10.093 22.5-22.5-10.094-22.5-22.5-22.5zm0 30c-4.136 0-7.5-3.364-7.5-7.5s3.364-7.5 7.5-7.5 7.5 3.364 7.5 7.5-3.364 7.5-7.5 7.5z" fill="#57c6ac" data-original="#000000" style="" class=""/></g></g></svg>
