<?xml version="1.0"?>
<svg xmlns="http://www.w3.org/2000/svg" xmlns:xlink="http://www.w3.org/1999/xlink" xmlns:svgjs="http://svgjs.com/svgjs" version="1.1" width="512" height="512" x="0" y="0" viewBox="0 0 24 24" style="enable-background:new 0 0 512 512" xml:space="preserve" class=""><g><g xmlns="http://www.w3.org/2000/svg"><g><path d="m3.5 22h-3c-.276 0-.5-.224-.5-.5v-9c0-.276.224-.5.5-.5 3.401 0 5.198 1.146 5.273 1.195.179.117.264.335.211.542l-2 7.886c-.055.222-.255.377-.484.377zm-2.5-1h2.111l1.808-7.13c-.562-.27-1.888-.786-3.919-.861z" fill="#57c6ac" data-original="#000000" style="" class=""/></g><g><path d="m13 24c-2.36 0-6.923-1.984-9.433-3.168-.25-.117-.357-.416-.239-.665.117-.251.418-.357.665-.239 1.96.924 6.761 3.072 9.007 3.072 2.433 0 8.165-2.857 9.814-3.706-.26-.34-.797-.794-1.814-.794-.923 0-2.093.369-3.225.727-1.203.379-2.448.773-3.525.773-2.064 0-4.806-.988-4.921-1.03-.26-.094-.394-.381-.299-.641.094-.26.38-.393.641-.299.026.01 2.692.97 4.579.97.923 0 2.093-.369 3.225-.727 1.203-.379 2.448-.773 3.525-.773 2.334 0 2.949 1.767 2.975 1.842.077.231-.024.484-.239.6-.311.164-7.646 4.058-10.736 4.058z" fill="#57c6ac" data-original="#000000" style="" class=""/></g><g><path d="m16.5 19.59c-.276 0-.5-.224-.5-.5v-.5c0-.698-.471-1.296-1.144-1.452l-9.653-2.331c-.269-.065-.434-.335-.369-.604s.336-.428.604-.369l9.649 2.33c1.125.263 1.913 1.261 1.913 2.426v.5c0 .276-.224.5-.5.5z" fill="#57c6ac" data-original="#000000" style="" class=""/></g></g><g xmlns="http://www.w3.org/2000/svg"><path d="m14.5 13c-1.93 0-3.5-1.57-3.5-3.5 0-.935.364-1.814 1.025-2.475l6-6c.662-.661 1.54-1.025 2.475-1.025 1.93 0 3.5 1.57 3.5 3.5 0 .935-.364 1.814-1.025 2.475l-6 6c-.662.661-1.54 1.025-2.475 1.025zm6-12c-.667 0-1.295.26-1.768.732l-6 6c-.472.473-.732 1.1-.732 1.768 0 1.378 1.121 2.5 2.5 2.5.667 0 1.295-.26 1.768-.732l6-6c.472-.473.732-1.1.732-1.768 0-1.378-1.121-2.5-2.5-2.5z" fill="#57c6ac" data-original="#000000" style="" class=""/></g><g xmlns="http://www.w3.org/2000/svg"><path d="m17 3.5h1v5.999h-1z" transform="matrix(.707 -.707 .707 .707 .529 14.278)" fill="#57c6ac" data-original="#000000" style="" class=""/></g></g></svg>
