<?xml version="1.0"?>
<svg xmlns="http://www.w3.org/2000/svg" xmlns:xlink="http://www.w3.org/1999/xlink" xmlns:svgjs="http://svgjs.com/svgjs" version="1.1" width="512" height="512" x="0" y="0" viewBox="0 0 60 60" style="enable-background:new 0 0 512 512" xml:space="preserve" class=""><g><g xmlns="http://www.w3.org/2000/svg" id="Page-1" fill="none" fill-rule="evenodd"><g id="028---Hospital-Bed" fill="rgb(0,0,0)" fill-rule="nonzero"><path id="Shape" d="m57 34c-1.6568542 0-3 1.3431458-3 3v3h-32.351c.2281069-.4673157.3480732-.9799922.351-1.5 0-1.9329966-1.5670034-3.5-3.5-3.5h-7c-1.93299662 0-3.5 1.5670034-3.5 3.5.00292677.5200078.12289307 1.0326843.351 1.5h-2.351v-11c0-1.6568542-1.34314575-3-3-3s-3 1.3431458-3 3v28c-.0027654 1.4594373 1.04748812 2.7080809 2.48582199 2.9553873 1.43833386.2473064 2.84532568-.5788398 3.33017801-1.9553873h48.368c.4848523 1.3765475 1.8918441 2.2026937 3.330178 1.9553873s2.4885874-1.49595 2.485822-2.9553873v-20c0-1.6568542-1.3431458-3-3-3zm-3 17h-35c-.5522847 0-1-.4477153-1-1v-8h36zm-44-12.5c0-.8284271.6715729-1.5 1.5-1.5h7c.8284271 0 1.5.6715729 1.5 1.5s-.6715729 1.5-1.5 1.5h-7c-.8284271 0-1.5-.6715729-1.5-1.5zm-7 19.5c-.55228475 0-1-.4477153-1-1v-28c0-.5522847.44771525-1 1-1s1 .4477153 1 1v28c0 .5522847-.44771525 1-1 1zm3-16h10v8c0 1.6568542 1.3431458 3 3 3h35v3h-48zm52 15c0 .5522847-.4477153 1-1 1s-1-.4477153-1-1v-20c0-.5522847.4477153-1 1-1s1 .4477153 1 1z" fill="#57c6ac" data-original="#000000" style=""/><path id="Shape" d="m30 32c8.836556 0 16-7.163444 16-16s-7.163444-16-16-16-16 7.163444-16 16c.0104696 8.8322157 7.1677843 15.9895304 16 16zm0-30c7.7319865 0 14 6.2680135 14 14s-6.2680135 14-14 14-14-6.2680135-14-14c.0082673-7.72855947 6.2714405-13.99173268 14-14z" fill="#57c6ac" data-original="#000000" style=""/><path id="Shape" d="m23 20h3v3c0 1.1045695.8954305 2 2 2h4c1.1045695 0 2-.8954305 2-2v-3h3c1.1045695 0 2-.8954305 2-2v-4c0-1.1045695-.8954305-2-2-2h-3v-3c0-1.1045695-.8954305-2-2-2h-4c-1.1045695 0-2 .8954305-2 2v3h-3c-1.1045695 0-2 .8954305-2 2v4c0 1.1045695.8954305 2 2 2zm0-6h3c1.1045695 0 2-.8954305 2-2v-3h4v3c0 1.1045695.8954305 2 2 2h3v4h-3c-1.1045695 0-2 .8954305-2 2v3h-4v-3c0-1.1045695-.8954305-2-2-2h-3z" fill="#57c6ac" data-original="#000000" style=""/><path id="Shape" d="m21 46h22c.5522847 0 1-.4477153 1-1s-.4477153-1-1-1h-22c-.5522847 0-1 .4477153-1 1s.4477153 1 1 1z" fill="#57c6ac" data-original="#000000" style=""/><circle id="Oval" cx="47" cy="45" r="1" fill="#57c6ac" data-original="#000000" style=""/></g></g></g></svg>
