<?xml version="1.0"?>
<svg xmlns="http://www.w3.org/2000/svg" xmlns:xlink="http://www.w3.org/1999/xlink" xmlns:svgjs="http://svgjs.com/svgjs" version="1.1" width="512" height="512" x="0" y="0" viewBox="0 0 512.001 512.001" style="enable-background:new 0 0 512 512" xml:space="preserve" class=""><g>
<g xmlns="http://www.w3.org/2000/svg">
	<g>
		<path d="M216.738,252.933c-14.263-14.263-37.473-14.263-51.736,0c-14.263,14.263-14.263,37.473,0,51.736    c14.263,14.263,37.473,14.263,51.736,0C231.001,290.405,231.001,267.196,216.738,252.933z M202.629,290.558    c-6.484,6.484-17.033,6.484-23.517,0s-6.484-17.033,0-23.517s17.033-6.484,23.517,0    C209.111,273.525,209.111,284.074,202.629,290.558z" fill="#57c6ac" data-original="#000000" style="" class=""/>
	</g>
</g>
<g xmlns="http://www.w3.org/2000/svg">
	<g>
		<path d="M266.122,302.317c-10.374-10.373-27.252-10.373-37.626,0c-3.896,3.896-3.896,10.213,0,14.11    c3.896,3.896,10.213,3.896,14.11,0c2.593-2.593,6.814-2.593,9.406,0s2.593,6.814,0,9.406c-1.86,1.86-4.033,2.009-5.163,1.933    l-36.491-2.481c-4.149-0.282-8.038,2.039-9.759,5.825c-1.72,3.786-0.913,8.242,2.029,11.184l23.517,23.517    c3.896,3.896,10.213,3.896,14.11,0s3.896-10.213,0-14.11l-4.704-4.704l9.946,0.676c7.673,0.521,15.189-2.296,20.623-7.73    C276.495,329.569,276.495,312.69,266.122,302.317z" fill="#57c6ac" data-original="#000000" style="" class=""/>
	</g>
</g>
<g xmlns="http://www.w3.org/2000/svg">
	<g>
		<path d="M501.286,29.527l-18.814-18.813C475.555,3.8,466.382,0,456.611,0c-0.084,0-0.166,0-0.25,0    c-9.863,0.067-19.087,3.995-25.97,11.064c-8.298,8.519-8.604,22.063-1.022,31.085c-3.363,7.408-2.108,16.404,3.735,22.635    l-14.126,14.128l-2.351-2.352c-9.078-9.075-23.847-9.075-32.924,0l-6.568,6.569c-44.692-22.298-99.38-13.497-135.476,22.595    l-27.273,27.275l-0.001,0.001L214.385,133L45.081,302.305c-0.004,0.004-0.008,0.007-0.012,0.011s-0.007,0.008-0.011,0.012    l-18.802,18.802c-35.009,35.01-35.009,91.978,0,126.988l37.626,37.626C81.387,503.247,104.381,512,127.375,512    c22.995,0,45.989-8.753,63.494-26.257l216.35-216.35c37.568-37.57,44.957-95.732,17.967-141.436    c-2.802-4.745-8.924-6.318-13.663-3.519c-4.744,2.802-6.32,8.919-3.519,13.663c22.361,37.864,16.235,86.052-14.895,117.182    l-21.165,21.165l-31.042-31.041c-3.895-3.895-10.213-3.896-14.109,0.001c-3.896,3.896-3.896,10.213,0.001,14.109l31.041,31.039    L202.628,445.764l-31.042-31.041c-3.895-3.895-10.213-3.896-14.109,0.001c-3.896,3.896-3.896,10.213,0.001,14.109l31.041,31.039    l-11.758,11.758c-13.191,13.191-30.729,20.456-49.384,20.456c-18.653,0-36.192-7.265-49.383-20.456l-37.626-37.626    c-13.191-13.191-20.457-30.729-20.457-49.384c0-18.653,7.266-36.192,20.457-49.383l11.757-11.757l49.383,49.384    c1.949,1.948,4.502,2.921,7.056,2.921c2.553,0,5.107-0.974,7.056-2.921c3.896-3.898,3.896-10.214,0-14.11l-49.383-49.384    l155.205-155.208l49.383,49.384c1.949,1.948,4.502,2.921,7.056,2.921c2.553,0,5.107-0.974,7.056-2.921    c3.896-3.898,3.896-10.214,0-14.11l-49.383-49.384l20.219-20.219c31.263-31.263,79.249-37.901,117.1-16.353l11.294,11.228    c1.946,1.934,4.49,2.901,7.033,2.901c2.563,0,5.127-0.982,7.076-2.944c3.884-3.908,3.866-10.225-0.043-14.109l-5.167-5.136    l4.749-4.749c1.297-1.3,3.407-1.298,4.703-0.001l18.813,18.814c0.942,0.94,1.008,2.041,0.966,2.614    c-0.422,5.494,3.689,10.29,9.183,10.711c5.509,0.451,10.29-3.69,10.711-9.183c0.318-4.132-0.483-8.208-2.234-11.854l10.77,10.77    l-2.352,2.352c-3.896,3.896-3.896,10.213,0,14.109s10.213,3.896,14.11,0l18.813-18.813c3.896-3.896,3.896-10.213,0-14.11    s-10.213-3.896-14.11,0l-2.352,2.352l-18.577-18.577l0.958-0.958c6.234,5.844,15.229,7.093,22.635,3.735    c4.322,3.633,9.683,5.457,15.032,5.457c5.815,0,11.615-2.154,16.051-6.476c7.07-6.885,11-16.108,11.065-25.971    C512.064,45.775,508.259,36.503,501.286,29.527z M487.01,67.316c-1.221,1.191-3.258,1.117-4.539-0.162l-2.822-2.822    c-2.388-2.386-5.562-3.701-8.937-3.701c-3.368,0-6.536,1.31-8.921,3.686l1.866-1.866l-14.11-14.11l-1.866,1.866    c2.376-2.387,3.686-5.553,3.686-8.921c0-3.375-1.314-6.549-3.701-8.937l-2.822-2.821c-1.281-1.28-1.354-3.316-0.161-4.54    c3.131-3.215,7.326-5.003,11.808-5.032c0.039,0,0.077,0,0.114,0c4.44,0,8.612,1.727,11.754,4.87l18.814,18.814    c3.17,3.17,4.901,7.384,4.87,11.869C492.015,59.989,490.227,64.182,487.01,67.316z" fill="#57c6ac" data-original="#000000" style="" class=""/>
	</g>
</g>
<g xmlns="http://www.w3.org/2000/svg">
</g>
<g xmlns="http://www.w3.org/2000/svg">
</g>
<g xmlns="http://www.w3.org/2000/svg">
</g>
<g xmlns="http://www.w3.org/2000/svg">
</g>
<g xmlns="http://www.w3.org/2000/svg">
</g>
<g xmlns="http://www.w3.org/2000/svg">
</g>
<g xmlns="http://www.w3.org/2000/svg">
</g>
<g xmlns="http://www.w3.org/2000/svg">
</g>
<g xmlns="http://www.w3.org/2000/svg">
</g>
<g xmlns="http://www.w3.org/2000/svg">
</g>
<g xmlns="http://www.w3.org/2000/svg">
</g>
<g xmlns="http://www.w3.org/2000/svg">
</g>
<g xmlns="http://www.w3.org/2000/svg">
</g>
<g xmlns="http://www.w3.org/2000/svg">
</g>
<g xmlns="http://www.w3.org/2000/svg">
</g>
</g></svg>
